<?xml version="1.0" encoding="UTF-8"?>
<svg id="b" data-name="Layer 2" xmlns="http://www.w3.org/2000/svg" viewBox="0 0 24.21 24.21">
  <defs>
    <style>
      .d, .e {
        fill: #fff;
      }

      .f {
        fill: #fcee25;
      }

      .f, .g, .e, .h, .i, .j, .k {
        stroke: #231f20;
        stroke-miterlimit: 10;
      }

      .g {
        fill: #f6851f;
      }

      .h {
        fill: #ed2024;
      }

      .i {
        fill: #44b649;
      }

      .j {
        fill: #3d59a8;
      }

      .k {
        fill: #623795;
      }
    </style>
  </defs>
  <g id="c" data-name="Layer 1">
    <rect class="d" width="24.21" height="24.21" rx="2.33" ry="2.33"/>
    <rect class="e" x="7.57" y="7.57" width="9.08" height="9.08"/>
    <g>
      <path class="j" d="m2.16,14.49c.26.89.82,1.7,1.65,2.27,1.91,1.31,4.53.83,5.84-1.08.56-.81.79-1.74.73-2.65"/>
      <circle class="i" cx="10.18" cy="17.83" r="4.2"/>
      <circle class="f" cx="16.1" cy="16.63" r="4.2"/>
      <circle class="g" cx="18.02" cy="10.91" r="4.2"/>
      <circle class="h" cx="14.03" cy="6.38" r="4.2"/>
      <circle class="k" cx="8.11" cy="7.58" r="4.2"/>
      <path class="j" d="m10.38,13.03c-.08-1.24-.71-2.43-1.81-3.19-1.91-1.31-4.53-.83-5.84,1.08-.75,1.09-.91,2.4-.57,3.57"/>
    </g>
    <polygon class="e" points="8.88 10.24 8.88 13.97 12.1 15.83 15.33 13.97 15.33 10.24 12.1 8.38 8.88 10.24"/>
  </g>
</svg>